<?xml version="1.0" standalone="no"?><!-- Generator: Gravit.io --><svg xmlns="http://www.w3.org/2000/svg" xmlns:xlink="http://www.w3.org/1999/xlink" style="isolation:isolate" viewBox="0 0 230.5 324.5" width="230.5" height="324.5"><defs><clipPath id="_clipPath_WcYdL9MfO3tbe0Ujkzc7Q6oFLHiGtfLw"><rect width="230.5" height="324.5"/></clipPath></defs><g clip-path="url(#_clipPath_WcYdL9MfO3tbe0Ujkzc7Q6oFLHiGtfLw)"><rect x="1.5" y="1.5" width="227.5" height="321.5" transform="matrix(1,0,0,1,0,0)" fill="rgb(255,255,255)" vector-effect="non-scaling-stroke" stroke-width="1" stroke="rgb(0,0,0)" stroke-linejoin="miter" stroke-linecap="square" stroke-miterlimit="3"/><g><rect x="32" y="10.5" width="84" height="42" transform="matrix(1,0,0,1,0,0)" fill="rgb(255,79,79)" vector-effect="non-scaling-stroke" stroke-width="0.8" stroke="rgb(0,0,0)" stroke-linejoin="miter" stroke-linecap="square" stroke-miterlimit="3"/><rect x="116" y="10.5" width="84" height="42" transform="matrix(1,0,0,1,0,0)" fill="rgb(255,128,128)" vector-effect="non-scaling-stroke" stroke-width="0.8" stroke="rgb(0,0,0)" stroke-linejoin="miter" stroke-linecap="square" stroke-miterlimit="3"/><rect x="32" y="52.5" width="84" height="42" transform="matrix(1,0,0,1,0,0)" fill="rgb(255,160,160)" vector-effect="non-scaling-stroke" stroke-width="0.8" stroke="rgb(0,0,0)" stroke-linejoin="miter" stroke-linecap="square" stroke-miterlimit="3"/><rect x="116" y="52.5" width="84" height="42" transform="matrix(1,0,0,1,0,0)" fill="rgb(255,160,160)" vector-effect="non-scaling-stroke" stroke-width="0.8" stroke="rgb(0,0,0)" stroke-linejoin="miter" stroke-linecap="square" stroke-miterlimit="3"/><rect x="32" y="94.5" width="84" height="42" transform="matrix(1,0,0,1,0,0)" fill="rgb(255,160,160)" vector-effect="non-scaling-stroke" stroke-width="0.8" stroke="rgb(0,0,0)" stroke-linejoin="miter" stroke-linecap="square" stroke-miterlimit="3"/><rect x="116" y="94.5" width="84" height="42" transform="matrix(1,0,0,1,0,0)" fill="rgb(255,128,128)" vector-effect="non-scaling-stroke" stroke-width="0.8" stroke="rgb(0,0,0)" stroke-linejoin="miter" stroke-linecap="square" stroke-miterlimit="3"/><rect x="32" y="136.5" width="84" height="42" transform="matrix(1,0,0,1,0,0)" fill="rgb(255,160,160)" vector-effect="non-scaling-stroke" stroke-width="0.8" stroke="rgb(0,0,0)" stroke-linejoin="miter" stroke-linecap="square" stroke-miterlimit="3"/><rect x="116" y="136.5" width="84" height="42" transform="matrix(1,0,0,1,0,0)" fill="rgb(255,21,21)" vector-effect="non-scaling-stroke" stroke-width="0.8" stroke="rgb(0,0,0)" stroke-linejoin="miter" stroke-linecap="square" stroke-miterlimit="3"/><rect x="32" y="178.5" width="84" height="42" transform="matrix(1,0,0,1,0,0)" fill="rgb(255,160,160)" vector-effect="non-scaling-stroke" stroke-width="0.8" stroke="rgb(0,0,0)" stroke-linejoin="miter" stroke-linecap="square" stroke-miterlimit="3"/><rect x="116" y="178.5" width="84" height="42" transform="matrix(1,0,0,1,0,0)" fill="rgb(51,102,0)" vector-effect="non-scaling-stroke" stroke-width="0.8" stroke="rgb(0,0,0)" stroke-linejoin="miter" stroke-linecap="square" stroke-miterlimit="3"/><rect x="32" y="220.5" width="84" height="42" transform="matrix(1,0,0,1,0,0)" fill="rgb(255,160,160)" vector-effect="non-scaling-stroke" stroke-width="0.8" stroke="rgb(0,0,0)" stroke-linejoin="miter" stroke-linecap="square" stroke-miterlimit="3"/><rect x="116" y="220.5" width="84" height="42" transform="matrix(1,0,0,1,0,0)" fill="rgb(129,255,4)" vector-effect="non-scaling-stroke" stroke-width="0.8" stroke="rgb(0,0,0)" stroke-linejoin="miter" stroke-linecap="square" stroke-miterlimit="3"/></g><g transform="matrix(1,0,0,1,47.25,15.816)"><text transform="matrix(1,0,0,1,0,12.826)" style="font-family:&quot;Open Sans&quot;;font-weight:400;font-size:12px;font-style:normal;fill:#000000;stroke:none;">-0.000450</text></g><g transform="matrix(1,0,0,1,56.25,32.158)"><text transform="matrix(1,0,0,1,0,12.826)" style="font-family:&quot;Open Sans&quot;;font-weight:400;font-size:12px;font-style:normal;fill:#000000;stroke:none;">-9.79%</text></g><g transform="matrix(1,0,0,1,130.5,15.816)"><text transform="matrix(1,0,0,1,0,12.826)" style="font-family:&quot;Open Sans&quot;;font-weight:400;font-size:12px;font-style:normal;fill:#000000;stroke:none;">-3.41e+5</text></g><g transform="matrix(1,0,0,1,132.5,32.158)"><text transform="matrix(1,0,0,1,0,12.826)" style="font-family:&quot;Open Sans&quot;;font-weight:400;font-size:12px;font-style:normal;fill:#000000;stroke:none;">-16.34%</text></g><g transform="matrix(1,0,0,1,127.5,59.816)"><text transform="matrix(1,0,0,1,0,12.826)" style="font-family:&quot;Open Sans&quot;;font-weight:400;font-size:12px;font-style:normal;fill:#000000;stroke:none;">-1.649e+4</text></g><g transform="matrix(1,0,0,1,136,76.158)"><text transform="matrix(1,0,0,1,0,12.826)" style="font-family:&quot;Open Sans&quot;;font-weight:400;font-size:12px;font-style:normal;fill:#000000;stroke:none;">-5.31%</text></g><g transform="matrix(1,0,0,1,139,96.816)"><text transform="matrix(1,0,0,1,0,12.826)" style="font-family:&quot;Open Sans&quot;;font-weight:400;font-size:12px;font-style:normal;fill:#000000;stroke:none;">-9398</text></g><g transform="matrix(1,0,0,1,132.5,113.158)"><text transform="matrix(1,0,0,1,0,12.826)" style="font-family:&quot;Open Sans&quot;;font-weight:400;font-size:12px;font-style:normal;fill:#000000;stroke:none;">-22.72%</text></g><g transform="matrix(1,0,0,1,139,140.5)"><text transform="matrix(1,0,0,1,0,12.826)" style="font-family:&quot;Open Sans&quot;;font-weight:400;font-size:12px;font-style:normal;fill:#ffffff;stroke:none;">-7463</text></g><g transform="matrix(1,0,0,1,132.5,156.842)"><text transform="matrix(1,0,0,1,0,12.826)" style="font-family:&quot;Open Sans&quot;;font-weight:400;font-size:12px;font-style:normal;fill:#ffffff;stroke:none;">-51.42%</text></g><g transform="matrix(1,0,0,1,137.5,183.5)"><text transform="matrix(1,0,0,1,0,12.826)" style="font-family:&quot;Open Sans&quot;;font-weight:400;font-size:12px;font-style:normal;fill:#ffffff;stroke:none;">+2507</text></g><g transform="matrix(1,0,0,1,131,199.842)"><text transform="matrix(1,0,0,1,0,12.826)" style="font-family:&quot;Open Sans&quot;;font-weight:400;font-size:12px;font-style:normal;fill:#ffffff;stroke:none;">+204.6%</text></g><g transform="matrix(1,0,0,1,136,224.408)"><text transform="matrix(1,0,0,1,0,12.826)" style="font-family:&quot;Open Sans&quot;;font-weight:400;font-size:12px;font-style:normal;fill:#000000;stroke:none;">+447.5</text></g><g transform="matrix(1,0,0,1,131,240.75)"><text transform="matrix(1,0,0,1,0,12.826)" style="font-family:&quot;Open Sans&quot;;font-weight:400;font-size:12px;font-style:normal;fill:#000000;stroke:none;">+48.76%</text></g><g transform="matrix(1,0,0,1,47.25,56.5)"><text transform="matrix(1,0,0,1,0,12.826)" style="font-family:&quot;Open Sans&quot;;font-weight:400;font-size:12px;font-style:normal;fill:#000000;stroke:none;">-0.000076</text></g><g transform="matrix(1,0,0,1,56.25,72.842)"><text transform="matrix(1,0,0,1,0,12.826)" style="font-family:&quot;Open Sans&quot;;font-weight:400;font-size:12px;font-style:normal;fill:#000000;stroke:none;">-1.80%</text></g><g transform="matrix(1,0,0,1,47.25,100.658)"><text transform="matrix(1,0,0,1,0,12.826)" style="font-family:&quot;Open Sans&quot;;font-weight:400;font-size:12px;font-style:normal;fill:#000000;stroke:none;">-0.000037</text></g><g transform="matrix(1,0,0,1,49.25,117)"><text transform="matrix(1,0,0,1,0,12.826)" style="font-family:&quot;Open Sans&quot;;font-weight:400;font-size:12px;font-style:normal;fill:#000000;stroke:none;">-0.8860%</text></g><g transform="matrix(1,0,0,1,47.25,140.5)"><text transform="matrix(1,0,0,1,0,12.826)" style="font-family:&quot;Open Sans&quot;;font-weight:400;font-size:12px;font-style:normal;fill:#000000;stroke:none;">-0.000012</text></g><g transform="matrix(1,0,0,1,49.25,156.842)"><text transform="matrix(1,0,0,1,0,12.826)" style="font-family:&quot;Open Sans&quot;;font-weight:400;font-size:12px;font-style:normal;fill:#000000;stroke:none;">-0.2891%</text></g><g transform="matrix(1,0,0,1,49.25,183.5)"><text transform="matrix(1,0,0,1,0,12.826)" style="font-family:&quot;Open Sans&quot;;font-weight:400;font-size:12px;font-style:normal;fill:#000000;stroke:none;">-5.000e-6</text></g><g transform="matrix(1,0,0,1,50.75,199.842)"><text transform="matrix(1,0,0,1,0,12.826)" style="font-family:&quot;Open Sans&quot;;font-weight:400;font-size:12px;font-style:normal;fill:#000000;stroke:none;">-01207%</text></g><g transform="matrix(1,0,0,1,49.25,223.5)"><text transform="matrix(1,0,0,1,0,12.826)" style="font-family:&quot;Open Sans&quot;;font-weight:400;font-size:12px;font-style:normal;fill:#000000;stroke:none;">-6.000e-6</text></g><g transform="matrix(1,0,0,1,49.25,239.842)"><text transform="matrix(1,0,0,1,0,12.826)" style="font-family:&quot;Open Sans&quot;;font-weight:400;font-size:12px;font-style:normal;fill:#000000;stroke:none;">-0.1448%</text></g><g><g><g><g><g><g transform="matrix(1,0,0,1,12,23.5)"><text transform="matrix(1,0,0,1,0,14.964)" style="font-family:&quot;Open Sans&quot;;font-weight:400;font-size:14px;font-style:normal;fill:#8f1bc1;stroke:none;">1</text></g><g transform="matrix(1,0,0,1,12,65.585)"><text transform="matrix(1,0,0,1,0,14.964)" style="font-family:&quot;Open Sans&quot;;font-weight:400;font-size:14px;font-style:normal;fill:#8f1bc1;stroke:none;">2</text></g><g transform="matrix(1,0,0,1,12,107.671)"><text transform="matrix(1,0,0,1,0,14.964)" style="font-family:&quot;Open Sans&quot;;font-weight:400;font-size:14px;font-style:normal;fill:#8f1bc1;stroke:none;">3</text></g><g transform="matrix(1,0,0,1,12,145.677)"><text transform="matrix(1,0,0,1,0,14.964)" style="font-family:&quot;Open Sans&quot;;font-weight:400;font-size:14px;font-style:normal;fill:#8f1bc1;stroke:none;">4</text></g><g transform="matrix(1,0,0,1,12,187.677)"><text transform="matrix(1,0,0,1,0,14.964)" style="font-family:&quot;Open Sans&quot;;font-weight:400;font-size:14px;font-style:normal;fill:#8f1bc1;stroke:none;">5</text></g><g transform="matrix(1,0,0,1,12,231.19)"><text transform="matrix(1,0,0,1,0,14.964)" style="font-family:&quot;Open Sans&quot;;font-weight:400;font-size:14px;font-style:normal;fill:#8f1bc1;stroke:none;">6</text></g><g transform="matrix(1,0,0,1,39,282.5)"><text transform="matrix(1,0,0,1,0,14.964)" style="font-family:&quot;Open Sans&quot;;font-weight:400;font-size:14px;font-style:normal;fill:#8f1bc1;stroke:none;">7</text></g></g></g></g></g></g><g transform="matrix(1,0,0,1,51.25,266.5)"><text transform="matrix(1,0,0,1,0,14.964)" style="font-family:&quot;Open Sans&quot;;font-weight:400;font-size:14px;font-style:normal;fill:#000000;stroke:none;">binance</text></g><g transform="matrix(1,0,0,1,108.25,266.5)"><text transform="matrix(1,0,0,1,0,14.964)" style="font-family:&quot;Open Sans&quot;;font-weight:400;font-size:14px;font-style:normal;fill:#000000;stroke:none;">/</text></g><g transform="matrix(1,0,0,1,119,266.5)"><text transform="matrix(1,0,0,1,0,14.964)" style="font-family:&quot;Open Sans&quot;;font-weight:700;font-size:14px;font-style:normal;fill:#000000;stroke:none;">BTC-NEO</text></g><g transform="matrix(1,0,0,1,70,282.5)"><text transform="matrix(1,0,0,1,0,14.964)" style="font-family:&quot;Open Sans&quot;;font-weight:400;font-size:14px;font-style:normal;fill:#000000;stroke:none;">Price:  32.862</text></g><g transform="matrix(1,0,0,1,58.25,300.362)"><text transform="matrix(1,0,0,1,0,14.964)" style="font-family:&quot;Open Sans&quot;;font-weight:400;font-size:14px;font-style:normal;fill:#000000;stroke:none;">Volume: 775.714</text></g><path d=" M 163.67 293.248 L 163.161 292.753 C 162.946 292.543 162.946 292.204 163.161 291.996 L 167.612 287.657 C 167.827 287.448 168.175 287.448 168.388 287.657 L 172.839 291.994 C 173.054 292.204 173.054 292.543 172.839 292.751 L 172.33 293.246 C 172.112 293.458 171.757 293.454 171.544 293.237 L 168.917 290.55 L 168.917 296.964 C 168.917 297.261 168.672 297.5 168.368 297.5 L 167.635 297.5 C 167.33 297.5 167.085 297.261 167.085 296.964 L 167.085 290.55 L 164.456 293.239 C 164.243 293.458 163.888 293.463 163.67 293.248 Z " fill="rgb(0,0,0)"/><g><path d=" M 183.83 309.683 L 184.339 310.178 C 184.554 310.388 184.554 310.727 184.339 310.935 L 179.889 315.274 C 179.674 315.484 179.326 315.484 179.113 315.274 L 174.661 310.935 C 174.446 310.725 174.446 310.386 174.661 310.178 L 175.17 309.683 C 175.387 309.471 175.742 309.475 175.955 309.692 L 178.584 312.381 L 178.584 305.967 C 178.584 305.67 178.829 305.431 179.134 305.431 L 179.866 305.431 C 180.171 305.431 180.416 305.67 180.416 305.967 L 180.416 312.381 L 183.045 309.692 C 183.258 309.473 183.613 309.469 183.83 309.683 L 183.83 309.683 Z " fill="rgb(0,0,0)"/></g></g></svg>