<?xml version="1.0" standalone="no"?><!-- Generator: Gravit.io --><svg xmlns="http://www.w3.org/2000/svg" xmlns:xlink="http://www.w3.org/1999/xlink" style="isolation:isolate" viewBox="0 0 230.5 324.5" width="230.5" height="324.5"><defs><clipPath id="_clipPath_M5pYiYwg2Sic3NhzhGMSobq0fWf9n8YF"><rect width="230.5" height="324.5"/></clipPath></defs><g clip-path="url(#_clipPath_M5pYiYwg2Sic3NhzhGMSobq0fWf9n8YF)"><rect x="1.5" y="1.5" width="227.5" height="321.5" transform="matrix(1,0,0,1,0,0)" fill="rgb(255,255,255)" vector-effect="non-scaling-stroke" stroke-width="1" stroke="rgb(0,0,0)" stroke-linejoin="miter" stroke-linecap="square" stroke-miterlimit="3"/><g><rect x="32" y="10.5" width="84" height="42" transform="matrix(1,0,0,1,0,0)" fill="rgb(255,79,79)" vector-effect="non-scaling-stroke" stroke-width="0.8" stroke="rgb(0,0,0)" stroke-linejoin="miter" stroke-linecap="square" stroke-miterlimit="3"/><rect x="116" y="10.5" width="84" height="42" transform="matrix(1,0,0,1,0,0)" fill="rgb(255,128,128)" vector-effect="non-scaling-stroke" stroke-width="0.8" stroke="rgb(0,0,0)" stroke-linejoin="miter" stroke-linecap="square" stroke-miterlimit="3"/><rect x="32" y="52.5" width="84" height="42" transform="matrix(1,0,0,1,0,0)" fill="rgb(255,160,160)" vector-effect="non-scaling-stroke" stroke-width="0.8" stroke="rgb(0,0,0)" stroke-linejoin="miter" stroke-linecap="square" stroke-miterlimit="3"/><rect x="116" y="52.5" width="84" height="42" transform="matrix(1,0,0,1,0,0)" fill="rgb(255,160,160)" vector-effect="non-scaling-stroke" stroke-width="0.8" stroke="rgb(0,0,0)" stroke-linejoin="miter" stroke-linecap="square" stroke-miterlimit="3"/><rect x="32" y="94.5" width="84" height="42" transform="matrix(1,0,0,1,0,0)" fill="rgb(255,160,160)" vector-effect="non-scaling-stroke" stroke-width="0.8" stroke="rgb(0,0,0)" stroke-linejoin="miter" stroke-linecap="square" stroke-miterlimit="3"/><rect x="116" y="94.5" width="84" height="42" transform="matrix(1,0,0,1,0,0)" fill="rgb(255,128,128)" vector-effect="non-scaling-stroke" stroke-width="0.8" stroke="rgb(0,0,0)" stroke-linejoin="miter" stroke-linecap="square" stroke-miterlimit="3"/><rect x="32" y="136.5" width="84" height="42" transform="matrix(1,0,0,1,0,0)" fill="rgb(255,160,160)" vector-effect="non-scaling-stroke" stroke-width="0.8" stroke="rgb(0,0,0)" stroke-linejoin="miter" stroke-linecap="square" stroke-miterlimit="3"/><rect x="116" y="136.5" width="84" height="42" transform="matrix(1,0,0,1,0,0)" fill="rgb(255,21,21)" vector-effect="non-scaling-stroke" stroke-width="0.8" stroke="rgb(0,0,0)" stroke-linejoin="miter" stroke-linecap="square" stroke-miterlimit="3"/><rect x="32" y="178.5" width="84" height="42" transform="matrix(1,0,0,1,0,0)" fill="rgb(255,160,160)" vector-effect="non-scaling-stroke" stroke-width="0.8" stroke="rgb(0,0,0)" stroke-linejoin="miter" stroke-linecap="square" stroke-miterlimit="3"/><rect x="116" y="178.5" width="84" height="42" transform="matrix(1,0,0,1,0,0)" fill="rgb(51,102,0)" vector-effect="non-scaling-stroke" stroke-width="0.8" stroke="rgb(0,0,0)" stroke-linejoin="miter" stroke-linecap="square" stroke-miterlimit="3"/><rect x="32" y="220.5" width="84" height="42" transform="matrix(1,0,0,1,0,0)" fill="rgb(255,160,160)" vector-effect="non-scaling-stroke" stroke-width="0.8" stroke="rgb(0,0,0)" stroke-linejoin="miter" stroke-linecap="square" stroke-miterlimit="3"/><rect x="116" y="220.5" width="84" height="42" transform="matrix(1,0,0,1,0,0)" fill="rgb(129,255,4)" vector-effect="non-scaling-stroke" stroke-width="0.8" stroke="rgb(0,0,0)" stroke-linejoin="miter" stroke-linecap="square" stroke-miterlimit="3"/></g><g transform="matrix(1,0,0,1,50.75,15.816)"><text transform="matrix(1,0,0,1,0,12.826)" style="font-family:&quot;Open Sans&quot;;font-weight:400;font-size:12px;font-style:normal;fill:#000000;stroke:none;">0.004595</text></g><g transform="matrix(1,0,0,1,50.75,32.158)"><text transform="matrix(1,0,0,1,0,12.826)" style="font-family:&quot;Open Sans&quot;;font-weight:400;font-size:12px;font-style:normal;fill:#000000;stroke:none;">0.004145</text></g><g transform="matrix(1,0,0,1,133,15.816)"><text transform="matrix(1,0,0,1,0,12.826)" style="font-family:&quot;Open Sans&quot;;font-weight:400;font-size:12px;font-style:normal;fill:#000000;stroke:none;">2.089e+6</text></g><g transform="matrix(1,0,0,1,133,32.158)"><text transform="matrix(1,0,0,1,0,12.826)" style="font-family:&quot;Open Sans&quot;;font-weight:400;font-size:12px;font-style:normal;fill:#000000;stroke:none;">1.748e+6</text></g><g transform="matrix(1,0,0,1,133,59.816)"><text transform="matrix(1,0,0,1,0,12.826)" style="font-family:&quot;Open Sans&quot;;font-weight:400;font-size:12px;font-style:normal;fill:#000000;stroke:none;">3.105e+5</text></g><g transform="matrix(1,0,0,1,133,76.158)"><text transform="matrix(1,0,0,1,0,12.826)" style="font-family:&quot;Open Sans&quot;;font-weight:400;font-size:12px;font-style:normal;fill:#000000;stroke:none;">2.940e+5</text></g><g transform="matrix(1,0,0,1,133,96.816)"><text transform="matrix(1,0,0,1,0,12.826)" style="font-family:&quot;Open Sans&quot;;font-weight:400;font-size:12px;font-style:normal;fill:#000000;stroke:none;">4.136e+4</text></g><g transform="matrix(1,0,0,1,133,113.158)"><text transform="matrix(1,0,0,1,0,12.826)" style="font-family:&quot;Open Sans&quot;;font-weight:400;font-size:12px;font-style:normal;fill:#000000;stroke:none;">3.196e+4</text></g><g transform="matrix(1,0,0,1,133,140.5)"><text transform="matrix(1,0,0,1,0,12.826)" style="font-family:&quot;Open Sans&quot;;font-weight:400;font-size:12px;font-style:normal;fill:#ffffff;stroke:none;">1.451e+4</text></g><g transform="matrix(1,0,0,1,145,156.842)"><text transform="matrix(1,0,0,1,0,12.826)" style="font-family:&quot;Open Sans&quot;;font-weight:400;font-size:12px;font-style:normal;fill:#ffffff;stroke:none;">7050</text></g><g transform="matrix(1,0,0,1,145,183.5)"><text transform="matrix(1,0,0,1,0,12.826)" style="font-family:&quot;Open Sans&quot;;font-weight:400;font-size:12px;font-style:normal;fill:#ffffff;stroke:none;">1225</text></g><g transform="matrix(1,0,0,1,145,199.842)"><text transform="matrix(1,0,0,1,0,12.826)" style="font-family:&quot;Open Sans&quot;;font-weight:400;font-size:12px;font-style:normal;fill:#ffffff;stroke:none;">3732</text></g><g transform="matrix(1,0,0,1,143.5,224.408)"><text transform="matrix(1,0,0,1,0,12.826)" style="font-family:&quot;Open Sans&quot;;font-weight:400;font-size:12px;font-style:normal;fill:#000000;stroke:none;">917.7</text></g><g transform="matrix(1,0,0,1,145,240.75)"><text transform="matrix(1,0,0,1,0,12.826)" style="font-family:&quot;Open Sans&quot;;font-weight:400;font-size:12px;font-style:normal;fill:#000000;stroke:none;">1365</text></g><g transform="matrix(1,0,0,1,50.75,56.5)"><text transform="matrix(1,0,0,1,0,12.826)" style="font-family:&quot;Open Sans&quot;;font-weight:400;font-size:12px;font-style:normal;fill:#000000;stroke:none;">0.004221</text></g><g transform="matrix(1,0,0,1,50.75,72.842)"><text transform="matrix(1,0,0,1,0,12.826)" style="font-family:&quot;Open Sans&quot;;font-weight:400;font-size:12px;font-style:normal;fill:#000000;stroke:none;">0.004145</text></g><g transform="matrix(1,0,0,1,50.75,100.658)"><text transform="matrix(1,0,0,1,0,12.826)" style="font-family:&quot;Open Sans&quot;;font-weight:400;font-size:12px;font-style:normal;fill:#000000;stroke:none;">0.004176</text></g><g transform="matrix(1,0,0,1,50.75,117)"><text transform="matrix(1,0,0,1,0,12.826)" style="font-family:&quot;Open Sans&quot;;font-weight:400;font-size:12px;font-style:normal;fill:#000000;stroke:none;">0.004139</text></g><g transform="matrix(1,0,0,1,50.75,140.5)"><text transform="matrix(1,0,0,1,0,12.826)" style="font-family:&quot;Open Sans&quot;;font-weight:400;font-size:12px;font-style:normal;fill:#000000;stroke:none;">0.004151</text></g><g transform="matrix(1,0,0,1,50.75,156.842)"><text transform="matrix(1,0,0,1,0,12.826)" style="font-family:&quot;Open Sans&quot;;font-weight:400;font-size:12px;font-style:normal;fill:#000000;stroke:none;">0.004139</text></g><g transform="matrix(1,0,0,1,50.75,183.5)"><text transform="matrix(1,0,0,1,0,12.826)" style="font-family:&quot;Open Sans&quot;;font-weight:400;font-size:12px;font-style:normal;fill:#000000;stroke:none;">0.004144</text></g><g transform="matrix(1,0,0,1,50.75,199.842)"><text transform="matrix(1,0,0,1,0,12.826)" style="font-family:&quot;Open Sans&quot;;font-weight:400;font-size:12px;font-style:normal;fill:#000000;stroke:none;">0.004139</text></g><g transform="matrix(1,0,0,1,50.75,223.5)"><text transform="matrix(1,0,0,1,0,12.826)" style="font-family:&quot;Open Sans&quot;;font-weight:400;font-size:12px;font-style:normal;fill:#000000;stroke:none;">0.004145</text></g><g transform="matrix(1,0,0,1,50.75,239.842)"><text transform="matrix(1,0,0,1,0,12.826)" style="font-family:&quot;Open Sans&quot;;font-weight:400;font-size:12px;font-style:normal;fill:#000000;stroke:none;">0.004139</text></g><g transform="matrix(1,0,0,1,51.5,265.5)"><text transform="matrix(1,0,0,1,0,14.964)" style="font-family:&quot;Open Sans&quot;;font-weight:400;font-size:14px;font-style:normal;fill:#000000;stroke:none;">binance</text></g><g transform="matrix(1,0,0,1,108.5,265.5)"><text transform="matrix(1,0,0,1,0,14.964)" style="font-family:&quot;Open Sans&quot;;font-weight:400;font-size:14px;font-style:normal;fill:#000000;stroke:none;">/</text></g><g transform="matrix(1,0,0,1,119.25,265.5)"><text transform="matrix(1,0,0,1,0,14.964)" style="font-family:&quot;Open Sans&quot;;font-weight:700;font-size:14px;font-style:normal;fill:#000000;stroke:none;">BTC-NEO</text></g><g transform="matrix(1,0,0,1,70.25,281.5)"><text transform="matrix(1,0,0,1,0,14.964)" style="font-family:&quot;Open Sans&quot;;font-weight:400;font-size:14px;font-style:normal;fill:#000000;stroke:none;">Price:  32.862</text></g><g transform="matrix(1,0,0,1,58.25,300.362)"><text transform="matrix(1,0,0,1,0,14.964)" style="font-family:&quot;Open Sans&quot;;font-weight:400;font-size:14px;font-style:normal;fill:#000000;stroke:none;">Volume: 775.714</text></g><g><path d=" M 183.83 309.683 L 184.339 310.178 C 184.554 310.388 184.554 310.727 184.339 310.935 L 179.889 315.274 C 179.674 315.484 179.326 315.484 179.113 315.274 L 174.661 310.935 C 174.446 310.725 174.446 310.386 174.661 310.178 L 175.17 309.683 C 175.387 309.471 175.742 309.475 175.955 309.692 L 178.584 312.381 L 178.584 305.967 C 178.584 305.67 178.829 305.431 179.134 305.431 L 179.866 305.431 C 180.171 305.431 180.416 305.67 180.416 305.967 L 180.416 312.381 L 183.045 309.692 C 183.258 309.473 183.613 309.469 183.83 309.683 L 183.83 309.683 Z " fill="rgb(0,0,0)"/></g><path d=" M 164.17 293.248 L 163.661 292.753 C 163.446 292.543 163.446 292.204 163.661 291.996 L 168.112 287.657 C 168.327 287.448 168.675 287.448 168.888 287.657 L 173.339 291.994 C 173.554 292.204 173.554 292.543 173.339 292.751 L 172.83 293.246 C 172.612 293.458 172.257 293.454 172.044 293.237 L 169.417 290.55 L 169.417 296.964 C 169.417 297.261 169.172 297.5 168.868 297.5 L 168.135 297.5 C 167.83 297.5 167.585 297.261 167.585 296.964 L 167.585 290.55 L 164.956 293.239 C 164.743 293.458 164.388 293.463 164.17 293.248 Z " fill="rgb(0,0,0)"/></g></svg>